<mxfile host="app.diagrams.net" modified="2024-01-09T14:19:03.268Z" agent="Mozilla/5.0 (Macintosh; Intel Mac OS X 10_15_7) AppleWebKit/605.1.15 (KHTML, like Gecko) Version/17.1 Safari/605.1.15" version="22.1.17" etag="Yaw_n_uCH6loGcv9W2HB" type="github">
  <diagram name="Page-1" id="yPnVxilIkED46q4bNjGE">
    <mxGraphModel>
      <root>
        <mxCell id="0" />
        <mxCell id="1" parent="0" />
      </root>
    </mxGraphModel>
  </diagram>
</mxfile>
